#!OML:ASF H:\Pregnant\Project 1\Capture day 1\Session 1\femalepreg.ASF
:FULLY-SPECIFIED
:DEGREES
1049
root 3.51835 1.23228 20.0265 21.91 -76.2267 -95.1583
lowerback 19.1154 9.42511 -7.68767
upperback 9.1751 10.3614 -1.58231
thorax -1.62354 4.65136 0.411292
lowerneck -9.89444 7.55999 7.57012
upperneck 40.9987 9.1246 -1.40014
head 17.0477 4.00632 -0.642226
rclavicle 1.90833e-014 2.54444e-014
rhumerus 49.9013 30.2216 -46.9033
rradius 36.4228
rwrist -2.84377
rhand 10.2549 -3.53623
rfingers 7.12502
rthumb 215.368 -210.006
lclavicle 1.90833e-014 2.54444e-014
lhumerus -32.3849 -35.3524 19.8825
lradius 102.238
lwrist 19.8107
lhand 176.026 181.974
lfingers 7.12502
lthumb 201.779 -149.232
rfemur -81.0928 -21.6472 8.0878
rtibia 145.095
rfoot -8.46705 30.8789
rtoes -11.6613
lfemur -76.9978 19.3211 -13.0582
ltibia 96.59
lfoot 36.7334 -17.7746
ltoes 7.07537
1050
root 3.51402 1.23568 20.0252 22.639 -76.3817 -95.6792
lowerback 19.0958 9.43698 -7.89123
upperback 9.14845 10.3279 -1.69096
thorax -1.65154 4.62696 0.41248
lowerneck -10.0646 7.60788 7.72158
upperneck 41.1268 9.15031 -1.42723
head 17.1806 4.0269 -0.668357
rclavicle -1.33583e-013 1.145e-013
rhumerus 49.7282 30.1835 -46.9323
rradius 36.5766
rwrist -2.78022
rhand 10.5781 -3.60268
rfingers 7.12502
rthumb 215.674 -209.999
lclavicle -1.33583e-013 1.145e-013
lhumerus -33.5481 -35.6635 20.2008
lradius 103.287
lwrist 19.686
lhand 176.189 182.269
lfingers 7.12502
lthumb 201.936 -148.955
rfemur -81.4655 -22.2006 8.13256
rtibia 145.109
rfoot -8.34295 31.2019
rtoes -11.7619
lfemur -77.3992 19.7365 -13.3372
ltibia 96.8456
lfoot 36.7272 -17.8221
ltoes 7.10432
1051
root 3.50958 1.239 20.024 23.3702 -76.5251 -96.2014
lowerback 19.0374 9.41899 -8.15678
upperback 9.14785 10.2492 -1.79936
thorax -1.63818 4.57634 0.464542
lowerneck -10.3015 7.70065 7.93776
upperneck 41.2599 9.24384 -1.50264
head 17.3487 4.0777 -0.711642
rclavicle 4.13472e-014 3.18055e-015
rhumerus 49.6882 30.1941 -46.9439
rradius 36.7321
rwrist -2.71204
rhand 10.9033 -3.68667
rfingers 7.12502
rthumb 215.983 -210.007
lclavicle 4.13472e-014 3.18055e-015
lhumerus -34.8145 -35.8775 20.54
lradius 104.315
lwrist 19.5978
lhand 176.321 182.57
lfingers 7.12502
lthumb 202.062 -148.669
rfemur -81.8348 -22.7584 8.18046
rtibia 145.123
rfoot -8.20686 31.5268
rtoes -11.8491
lfemur -77.823 20.1622 -13.6581
ltibia 97.1318
lfoot 36.6915 -17.8264
ltoes 7.08989
1052
root 3.50504 1.24222 20.0231 24.1051 -76.6555 -96.7287
lowerback 18.9418 9.37036 -8.47316
upperback 9.17467 10.1261 -1.91606
thorax -1.57886 4.49972 0.552427
lowerneck -10.5925 7.83756 8.22121
upperneck 41.3783 9.3966 -1.6098
head 17.5373 4.15877 -0.766757
rclavicle -1.90833e-014 1.59028e-014
rhumerus 49.7758 30.243 -46.9548
rradius 36.889
rwrist -2.63636
rhand 11.2233 -3.78523
rfingers 7.12502
rthumb 216.286 -210.031
lclavicle -1.90833e-014 1.59028e-014
lhumerus -36.1597 -35.9877 20.8725
lradius 105.316
lwrist 19.5404
lhand 176.438 182.876
lfingers 7.12502
lthumb 202.174 -148.376
rfemur -82.1985 -23.3182 8.23476
rtibia 145.136
rfoot -8.06139 31.8533
rtoes -11.932
lfemur -78.2685 20.5962 -14.0177
ltibia 97.4502
lfoot 36.6198 -17.7898
ltoes 7.00427
1053
root 3.50043 1.24532 20.0222 24.8451 -76.7722 -97.2644
lowerback 18.8175 9.2963 -8.82328
upperback 9.22361 9.96758 -2.04497
thorax -1.48012 4.40219 0.659127
lowerneck -10.9116 8.01025 8.55698
upperneck 41.4677 9.5909 -1.72539
head 17.7281 4.26449 -0.824529
rclavicle -2.8625e-014 5.40694e-014
rhumerus 49.9597 30.3182 -46.9771
rradius 37.0477
rwrist -2.55267
rhand 11.5298 -3.8931
rfingers 7.12502
rthumb 216.576 -210.066
lclavicle -2.8625e-014 5.40694e-014
lhumerus -37.5483 -36.0054 21.18
lradius 106.287
lwrist 19.5058
lhand 176.557 183.184
lfingers 7.12502
lthumb 202.289 -148.081
rfemur -82.5549 -23.8764 8.29891
rtibia 145.147
rfoot -7.90897 32.1799
rtoes -12.0191
lfemur -78.7335 21.0373 -14.4131
ltibia 97.8014
lfoot 36.5068 -17.725
ltoes 6.81831
1054
root 3.49576 1.24832 20.0214 25.5872 -76.875 -97.8072
lowerback 18.6797 9.20863 -9.18402
upperback 9.28311 9.79199 -2.18381
thorax -1.35985 4.29417 0.767295
lowerneck -11.2237 8.20147 8.90776
upperneck 41.5228 9.79952 -1.81917
head 17.9008 4.38264 -0.871198
rclavicle 4.77083e-014 -5.08889e-014
rhumerus 50.1829 30.4058 -47.0135
rradius 37.2091
rwrist -2.46374
rhand 11.8146 -4.00359
rfingers 7.12502
rthumb 216.845 -210.108
lclavicle 4.77083e-014 -5.08889e-014
lhumerus -38.9343 -35.9619 21.458
lradius 107.222
lwrist 19.4871
lhand 176.696 183.492
lfingers 7.12502
lthumb 202.422 -147.789
rfemur -82.9024 -24.4312 8.37406
rtibia 145.157
rfoot -7.75215 32.5064
rtoes -12.1144
lfemur -79.2151 21.4832 -14.8423
ltibia 98.1847
lfoot 36.3509 -17.6472
ltoes 6.51594
1055
root 3.49108 1.25119 20.0206 26.3283 -76.9641 -98.3549
lowerback 18.5477 9.12485 -9.52531
upperback 9.33804 9.62525 -2.32606
thorax -1.2431 4.19089 0.857894
lowerneck -11.4924 8.38639 9.22327
upperneck 41.5469 9.98738 -1.85911
head 18.0365 4.49592 -0.892025
rclavicle -9.22361e-014 -1.27222e-014
rhumerus 50.3679 30.4863 -47.0609
rradius 37.3737
rwrist -2.37471
rhand 12.0695 -4.10973
rfingers 7.12502
rthumb 217.086 -210.152
lclavicle -9.22361e-014 -1.27222e-014
lhumerus -40.2598 -35.9042 21.7103
lradius 108.12
lwrist 19.4825
lhand 176.864 183.801
lfingers 7.12502
lthumb 202.584 -147.5
rfemur -83.2395 -24.9811 8.46019
rtibia 145.165
rfoot -7.59324 32.8326
rtoes -12.2164
lfemur -79.7098 21.9313 -15.3032
ltibia 98.5985
lfoot 36.1553 -17.5697
ltoes 6.1048
1056
root 3.48636 1.25396 20.0199 27.0604 -77.0384 -98.8981
lowerback 18.4326 9.05787 -9.82891
upperback 9.37855 9.48606 -2.46347
thorax -1.14718 4.10346 0.923433
lowerneck -11.6995 8.54584 9.46424
upperneck 41.5486 10.1308 -1.82802
head 18.1268 4.59112 -0.878377
rclavicle -1.20861e-013 8.5875e-014
rhumerus 50.4627 30.5467 -47.1083
rradius 37.5404
rwrist -2.29262
rhand 12.2882 -4.20747
rfingers 7.12502
rthumb 217.293 -210.196
lclavicle -1.20861e-013 8.5875e-014
lhumerus -41.4867 -35.8657 21.9466
lradius 108.98
lwrist 19.4968
lhand 177.066 184.112
lfingers 7.12502
lthumb 202.777 -147.213
rfemur -83.5663 -25.5314 8.55589
rtibia 145.17
rfoot -7.43572 33.1595
rtoes -12.3186
lfemur -80.2175 22.3767 -15.7952
ltibia 99.0406
lfoot 35.9289 -17.4984
ltoes 5.62087
1057
root 3.48163 1.25666 20.0193 27.776 -77.0983 -99.4285
lowerback 18.3399 9.01661 -10.0854
upperback 9.40007 9.3869 -2.58925
thorax -1.08138 4.03922 0.962311
lowerneck -11.8423 8.66759 9.60972
upperneck 41.5384 10.2169 -1.72318
head 18.1724 4.65998 -0.828839
rclavicle -1.90833e-014 9.54166e-015
rhumerus 50.4384 30.5785 -47.1445
rradius 37.7061
rwrist -2.22371
rhand 12.4685 -4.29395
rfingers 7.12502
rthumb 217.464 -210.237
lclavicle -1.90833e-014 9.54166e-015
lhumerus -42.5923 -35.8676 22.1751
lradius 109.803
lwrist 19.5387
lhand 177.294 184.429
lfingers 7.12502
lthumb 202.996 -146.923
rfemur -83.8822 -26.0848 8.65906
rtibia 145.174
rfoot -7.28316 33.4856
rtoes -12.4135
lfemur -80.7367 22.8164 -16.3174
ltibia 99.5092
lfoot 35.6827 -17.4333
ltoes 5.11781
1058
root 3.47686 1.25933 20.0188 28.4639 -77.1433 -99.9322
lowerback 18.2671 9.00266 -10.2974
upperback 9.40327 9.32959 -2.6996
thorax -1.04549 3.9992 0.980098
lowerneck -11.9309 8.74933 9.66145
upperneck 41.5253 10.247 -1.55793
head 18.1822 4.70115 -0.749728
rclavicle -1.04958e-013 7.63333e-014
rhumerus 50.296 30.5811 -47.1593
rradius 37.8671
rwrist -2.17226
rhand 12.61 -4.36859
rfingers 7.12502
rthumb 217.597 -210.276
lclavicle -1.04958e-013 7.63333e-014
lhumerus -43.5748 -35.9136 22.4005
lradius 110.59
lwrist 19.6182
lhand 177.533 184.754
lfingers 7.12502
lthumb 203.225 -146.626
rfemur -84.1891 -26.6492 8.76683
rtibia 145.178
rfoot -7.14148 33.8091
rtoes -12.4983
lfemur -81.2689 23.246 -16.8703
ltibia 100.002
lfoot 35.4289 -17.3681
ltoes 4.65374
1059
root 3.47203 1.26203 20.0184 29.1164 -77.1742 -100.399
lowerback 18.2068 9.01199 -10.4764
upperback 9.39304 9.30788 -2.79416
thorax -1.03183 3.97956 0.986098
lowerneck -11.9865 8.79537 9.63496
upperneck 41.518 10.2306 -1.35298
head 18.1712 4.71744 -0.650635
rclavicle -7.95139e-014 1.145e-013
rhumerus 50.0602 30.5611 -47.1474
rradius 38.0194
rwrist -2.13909
rhand 12.718 -4.43104
rfingers 7.12502
rthumb 217.7 -210.311
lclavicle -7.95139e-014 1.145e-013
lhumerus -44.4497 -35.9935 22.6224
lradius 111.342
lwrist 19.7413
lhand 177.759 185.09
lfingers 7.12502
lthumb 203.442 -146.318
rfemur -84.488 -27.2292 8.8766
rtibia 145.182
rfoot -7.01612 34.1264
rtoes -12.5768
lfemur -81.8147 23.6637 -17.4545
ltibia 100.52
lfoot 35.1762 -17.2964
ltoes 4.27078
